<svg xmlns="http://www.w3.org/2000/svg" viewBox="0 0 840 620">
  <defs>
    <linearGradient id="sky" x1="0" y1="0" x2="1" y2="1">
      <stop offset="0%" stop-color="#eff8fd" />
      <stop offset="100%" stop-color="#bfdff0" />
    </linearGradient>
    <linearGradient id="glass" x1="0" y1="0" x2="1" y2="1">
      <stop offset="0%" stop-color="#2d96cd" />
      <stop offset="100%" stop-color="#0d628e" />
    </linearGradient>
    <linearGradient id="ground" x1="0" y1="0" x2="1" y2="0">
      <stop offset="0%" stop-color="#dde5eb" />
      <stop offset="100%" stop-color="#cfd9e0" />
    </linearGradient>
  </defs>
  <rect width="840" height="620" fill="url(#sky)" />
  <path d="M0 410h840v210H0z" fill="url(#ground)" />
  <path d="M370 104h278l120 198H486z" fill="#dde7ed" />
  <path d="M400 132h230l104 170H500z" fill="url(#glass)" opacity=".9" />
  <path d="M330 302h455l-18 28H308z" fill="#9baab4" />
  <path d="M68 188l166 74-86 100L26 290z" fill="#d4e0e7" />
  <path d="M0 366h840" stroke="#b8c6cf" stroke-width="4" />
  <g transform="translate(134 282)">
    <rect x="0" y="34" width="376" height="132" rx="26" fill="#f8fbfd" stroke="#0f6d9d" stroke-width="5" />
    <rect x="30" y="54" width="190" height="54" rx="12" fill="#198ac6" opacity=".17" />
    <rect x="228" y="54" width="112" height="54" rx="12" fill="#198ac6" opacity=".17" />
    <rect x="18" y="120" width="330" height="20" rx="10" fill="#0f6d9d" opacity=".13" />
    <circle cx="78" cy="172" r="28" fill="#253843" />
    <circle cx="290" cy="172" r="28" fill="#253843" />
    <circle cx="78" cy="172" r="13" fill="#8da0ab" />
    <circle cx="290" cy="172" r="13" fill="#8da0ab" />
  </g>
  <g transform="translate(520 356)">
    <rect x="0" y="12" width="176" height="92" rx="22" fill="#fff" stroke="#0f6d9d" stroke-width="4" />
    <rect x="18" y="30" width="86" height="28" rx="10" fill="#198ac6" opacity=".18" />
    <rect x="110" y="30" width="42" height="28" rx="10" fill="#198ac6" opacity=".18" />
    <circle cx="42" cy="106" r="20" fill="#253843" />
    <circle cx="136" cy="106" r="20" fill="#253843" />
    <circle cx="42" cy="106" r="9" fill="#8da0ab" />
    <circle cx="136" cy="106" r="9" fill="#8da0ab" />
  </g>
  <g transform="translate(586 326)">
    <rect x="0" y="14" width="136" height="70" rx="18" fill="#fff" stroke="#0f6d9d" stroke-width="4" />
    <rect x="18" y="28" width="58" height="18" rx="8" fill="#198ac6" opacity=".18" />
    <rect x="82" y="28" width="28" height="18" rx="8" fill="#198ac6" opacity=".18" />
    <circle cx="34" cy="86" r="16" fill="#253843" />
    <circle cx="102" cy="86" r="16" fill="#253843" />
    <circle cx="34" cy="86" r="7" fill="#8da0ab" />
    <circle cx="102" cy="86" r="7" fill="#8da0ab" />
  </g>
</svg>

